<svg version="1" xmlns="http://www.w3.org/2000/svg" width="933.333" height="933.333" viewBox="0 0 700.000000 700.000000"><path d="M332.5 184.5c-4.3 2-6.1 3.8-14.6 14.5-6.7 8.4-27.1 34.9-32.4 42.1-13.9 18.8-37.3 47.7-39.5 48.9-1.5.8-2.2.4-4.1-2.8-4.4-7.1-9-10.2-19.1-12.7-6.2-1.6-7.9-2.6-19.2-11.8-3.5-2.9-4.7-3.1-15.4-2.7-5 .2-5.8-.1-11.3-4.5-6.6-5.2-10.8-6.3-16.5-4.5-3.8 1.2-19.8 8.8-23.9 11.3-8.8 5.4-18.3 11.8-19.6 13.4-.9 1-9.2 19.8-18.4 41.8-24.4 57.8-24 57-34.4 70.4-5 6.4-10.8 13.6-12.8 16-2.1 2.4-11.3 13.1-20.4 23.8l-16.6 19.5 3.7 11.1c7.2 21.6 17.8 45.6 28.6 64.7 8 14.1 29.8 45.9 31.5 46 .4 0 9.1-10.9 19.4-24.3 10.3-13.3 19.8-25.6 21-27.2 23.9-30.9 43.2-55.3 49-62l4-4.6 5 1.1c2.8.5 10.4 2.1 17 3.6 6.6 1.4 14.3 3 17 3.5 2.8.6 6.4 1.3 8 1.7 5.4 1.1 10.6.9 24-1.3 8-1.3 18.7-3 26-4 2.2-.3 6.5-1 9.5-1.5s7.2-1.1 9.3-1.4c9.4-1.4 11.7-1.8 19.7-3.1 4.7-.8 10.3-1.7 12.5-2.1 18-2.7 30.5-7.2 30.5-11.2.1-1.5.2-1.4 1.2.3 3.1 5.3 9.3 7.4 32.8 11.1 1.9.3 7.6 1.2 12.5 2 5 .8 10.4 1.7 12 2 1.7.3 3.7.7 4.5.9 1.5.4 6 1.1 13.5 2 2.1.3 5.2.8 6.9 1.1 1.7.3 4.5.7 6.1 1 1.7.2 5.5.9 8.5 1.4 3 .5 7.8 1.2 10.5 1.6 2.8.3 5.7.8 6.7.9 9.7 1.9 10.8 1.7 43.8-5.5 13.2-2.9 21.1-3.5 23.1-1.8 1.4 1.1 13.9 16.9 25.9 32.8 1.4 1.8 3 3.8 3.5 4.4.6.6 3 3.8 5.5 7.1s4.7 6.2 5 6.5c1.2 1.2 6.3 8.4 14.5 20.5 8.3 12.3 33.3 46.5 34 46.5 1 0 24.5-32.2 24.5-33.6 0-.3 1.3-2.4 2.9-4.7 6.6-9.8 15.1-26.4 25.6-50.2 2.3-5.3 8.2-21.8 10.5-29.3l2.1-7.4-7.9-8.1c-4.4-4.5-10.9-11.6-14.4-15.7-13.8-16.1-37-44.6-37.5-46-.8-2.1-41-98.1-42.3-101.1-.6-1.3-3.4-3.7-6.3-5.2-13.3-7.3-33.7-17.3-38.2-18.8-6.2-2-8.9-1.2-16.4 4.8-5.1 4.1-5.8 4.4-11 4.3-12.7-.3-12.5-.4-18.8 5.5-6.9 6.6-9.4 8.1-15 8.8-5.9.9-9.5 1.9-11.1 3.1-2.7 2.2-4.7 4.3-6.7 7.1-2.6 3.7-4.4 5.5-5.5 5.5-1.3 0-10.5-10.7-22-25.5-5.5-7.2-11.3-14.5-12.8-16.4-1.5-1.9-8.9-11.6-16.5-21.5-7.5-10-14.3-18.8-15-19.6-.6-.9-2.5-3.3-4.2-5.5-1.6-2.2-4.2-5.4-5.6-7-1.5-1.7-3.8-4.2-5.1-5.6-3.1-3.6-5.9-4.9-10.3-4.9-4.8 0-8.6 2.3-11.9 7.3-2 3.2-2.6 3.7-2.6 2 0-3.2-4.7-8.1-8.8-9.3-4.5-1.2-4-1.2-7.7.5zm20.1 21.8c1.1 2.3 7.7 13.9 14.6 25.7 11.8 20.2 21.9 37.7 25.8 44.5.9 1.6 13.4 23.2 27.7 48 36.7 63.5 44.5 77.6 43.9 79.1-1 2.7-9.7 7.3-15 7.9-2.8.3-16.6.8-30.6 1-29.6.4-36.9 1-50.4 3.6-10.9 2.2-14.7 3.8-17 7.1l-1.5 2.2-2-2.6c-2.5-3.1-7.4-5.2-17.2-7.1-11.1-2.3-18.5-2.8-46.3-3.2-37.4-.6-40.7-1.1-47.4-7.5l-2.2-2.1 2.3-4.2c4.9-8.8 27.8-48.9 36.7-64.2 13.3-22.9 36.2-62.6 37.5-65 .6-1.1 2.3-3.9 3.8-6.2 1.5-2.4 2.7-4.5 2.7-4.7 0-.2 2.7-5 6-10.6s6-10.3 6-10.4c0-.2 4.3-7.7 9.5-16.7 5.2-8.9 9.5-16.9 9.5-17.6 0-2.5 1.5-1.2 3.6 3z"/></svg>